Coordinates
version=1
nRows=30
nColumns=30
inDegrees=yes

Units are S.I. units (second, meters, Newtons, ...)
Angles are in degrees.

endheader
time	floatyaw	floatroll	floatpitch	floatx	floaty	floatz	pro_sup_l	deviation_l	flexion_l	cmc_flexion_l	cmc_abduction_l	mp_flexion_l	ip_flexion_l	2mcp_flexion_l	2mcp_abduction_l	2pm_flexion_l	2md_flexion_l	3mcp_flexion_l	3mcp_abduction_l	3pm_flexion_l	3md_flexion_l	4mcp_flexion_l	4mcp_abduction_l	4pm_flexion_l	4md_flexion_l	5mcp_flexion_l	5mcp_abduction_l	5pm_flexion_l	5md_flexion_l
-1.495000	-0.845308	-4.283240	94.249796	-0.006775	-0.268536	-0.000834	89.909941	-0.620238	-1.927864	26.147815	2.854304	-17.984187	-32.428872	18.500712	5.826984	32.980996	20.824908	8.318965	4.173266	35.712739	21.635856	-1.788358	-3.579877	52.733694	33.560957	-19.362133	-9.043908	59.865610	49.358959
-1.485000	-0.845308	-4.283240	94.249796	-0.006799	-0.268542	-0.000811	89.880775	-0.637624	-1.913641	26.139645	2.857795	-17.999321	-32.431721	18.508334	5.819761	32.941989	20.824592	8.311707	4.174361	35.659801	21.641418	-1.800805	-3.570280	52.722106	33.581888	-19.417150	-9.022783	59.850280	49.327950
-1.475000	-0.845308	-4.283240	94.249796	-0.006819	-0.268562	-0.000785	89.852591	-0.654944	-1.911012	26.130238	2.880156	-18.014860	-32.429342	18.530961	5.813604	32.907544	20.810607	8.322059	4.176701	35.610351	21.627022	-1.796194	-3.560330	52.710015	33.585936	-19.454591	-9.003662	59.832545	49.295426
-1.465000	-0.845308	-4.283240	94.249796	-0.006836	-0.268592	-0.000758	89.834273	-0.667906	-1.917393	26.115800	2.905303	-18.023849	-32.417813	18.551715	5.805804	32.889605	20.792674	8.338907	4.178054	35.575574	21.603454	-1.786786	-3.551240	52.706905	33.576987	-19.476019	-8.989413	59.820176	49.264758
-1.455000	-0.845308	-4.283240	94.249796	-0.006846	-0.268623	-0.000733	89.833291	-0.672432	-1.927753	26.095656	2.916473	-18.021353	-32.396899	18.553916	5.795248	32.897815	20.780860	8.348521	4.176270	35.565157	21.584927	-1.785224	-3.542817	52.722556	33.559932	-19.488723	-8.981210	59.824877	49.233136
-1.445000	-0.845308	-4.283240	94.249796	-0.006850	-0.268650	-0.000715	89.851272	-0.667380	-1.936971	26.071802	2.904700	-18.006920	-32.369274	18.530221	5.783029	32.933085	20.779119	8.341975	4.170322	35.581330	21.580421	-1.799088	-3.533936	52.759543	33.537961	-19.503057	-8.978770	59.853632	49.196772
-1.435000	-0.845308	-4.283240	94.249796	-0.006850	-0.268669	-0.000702	89.881857	-0.656156	-1.942107	26.047256	2.873599	-17.985685	-32.338148	18.486910	5.771567	32.984395	20.782944	8.320095	4.160875	35.615377	21.588726	-1.827840	-3.523370	52.808402	33.511891	-19.528288	-8.981200	59.900697	49.156572
-1.425000	-0.845308	-4.283240	94.249796	-0.006851	-0.268683	-0.000690	89.912797	-0.645717	-1.943516	26.024554	2.837917	-17.966994	-32.305279	18.441277	5.763191	33.031221	20.782597	8.293753	4.150139	35.649259	21.599922	-1.862436	-3.510601	52.848522	33.481705	-19.567387	-8.987617	59.946274	49.119976
-1.415000	-0.845308	-4.283240	94.249796	-0.006859	-0.268696	-0.000673	89.931688	-0.643156	-1.944211	26.005325	2.816374	-17.960566	-32.270906	18.413718	5.759206	33.051284	20.769420	8.279148	4.140963	35.662593	21.601844	-1.887937	-3.496310	52.855546	33.448906	-19.613262	-8.997019	59.964316	49.097497
-1.405000	-0.845308	-4.283240	94.249796	-0.006877	-0.268712	-0.000649	89.932076	-0.651802	-1.947849	25.990665	2.822576	-17.971657	-32.235442	18.418650	5.759811	33.030342	20.740860	8.289862	4.135529	35.642238	21.587250	-1.889254	-3.482405	52.812815	33.417845	-19.650008	-9.007714	59.936044	49.096754
-1.395000	-0.845308	-4.283240	94.249796	-0.006903	-0.268729	-0.000621	89.916060	-0.669269	-1.956467	25.981112	2.858756	-17.997580	-32.201022	18.458627	5.764413	32.969079	20.701236	8.329373	4.134296	35.589568	21.557535	-1.858589	-3.471542	52.721485	33.395048	-19.660631	-9.017339	59.861283	49.118751
-1.385000	-0.845308	-4.283240	94.249796	-0.006928	-0.268741	-0.000601	89.891879	-0.688678	-1.969154	25.975549	2.915173	-18.027584	-32.171011	18.523732	5.771780	32.883404	20.658642	8.387968	4.135803	35.520967	21.521367	-1.801197	-3.466277	52.603532	33.386836	-19.637809	-9.024013	59.760278	49.158832
-1.375000	-0.845308	-4.283240	94.249796	-0.006945	-0.268743	-0.000602	89.868486	-0.702247	-1.982169	25.970052	2.974646	-18.046595	-32.147648	18.595539	5.779964	32.798064	20.620843	8.445960	4.137528	35.460701	21.489855	-1.735630	-3.468111	52.494896	33.396457	-19.590585	-9.027756	59.664297	49.210680
-1.365000	-0.845308	-4.283240	94.249796	-0.006948	-0.268734	-0.000628	89.851037	-0.704980	-1.990369	25.958693	3.019350	-18.041395	-32.130079	18.653519	5.786489	32.736977	20.592853	8.481894	4.137325	35.429919	21.471437	-1.686877	-3.476880	52.431158	33.422126	-19.541272	-9.030619	59.600345	49.269844
-1.355000	-0.845308	-4.283240	94.249796	-0.006938	-0.268713	-0.000677	89.840036	-0.696394	-1.989424	25.937162	3.036808	-18.006696	-32.114945	18.681832	5.789154	32.714845	20.576914	8.482000	4.134628	35.437680	21.469061	-1.674752	-3.490798	52.432314	33.457100	-19.513052	-9.034849	59.578947	49.334652
-1.345000	-0.845308	-4.283240	94.249796	-0.006920	-0.268686	-0.000741	89.833866	-0.679680	-1.978109	25.907535	3.023347	-17.948580	-32.099685	18.674756	5.787221	32.733332	20.573730	8.446737	4.130736	35.478193	21.480227	-1.703235	-3.507212	52.493921	33.492038	-19.515584	-9.040309	59.591774	49.404675
-1.335000	-0.845308	-4.283240	94.249796	-0.006899	-0.268656	-0.000805	89.832034	-0.659380	-1.959705	25.880735	2.984614	-17.883655	-32.086468	18.638903	5.782206	32.782518	20.583312	8.391579	4.128071	35.534516	21.498854	-1.756874	-3.523792	52.588990	33.518657	-19.538092	-9.043334	59.619633	49.478097
-1.325000	-0.845308	-4.283240	94.249796	-0.006878	-0.268628	-0.000861	89.836327	-0.639316	-1.941522	25.873730	2.933453	-17.833623	-32.083554	18.590914	5.777540	32.845939	20.604703	8.341476	4.128868	35.585867	21.517556	-1.807034	-3.539554	52.679778	33.532912	-19.555092	-9.038291	59.645043	49.549498
-1.315000	-0.845308	-4.283240	94.249796	-0.006857	-0.268605	-0.000902	89.848972	-0.621906	-1.932208	25.901489	2.885970	-17.816871	-32.101894	18.551071	5.777015	32.906456	20.635161	8.320990	4.133992	35.614968	21.529625	-1.825296	-3.555057	52.733749	33.536079	-19.541599	-9.020997	59.661338	49.609192
-1.305000	-0.845308	-4.283240	94.249796	-0.006838	-0.268592	-0.000926	89.869426	-0.608717	-1.937829	25.967722	2.856965	-17.840559	-32.148315	18.535329	5.782765	32.950941	20.670044	8.344081	4.142450	35.613145	21.530782	-1.796928	-3.571510	52.735974	33.533188	-19.488242	-8.991645	59.673451	49.645043
-1.295000	-0.845308	-4.283240	94.249796	-0.006822	-0.268592	-0.000933	89.892760	-0.601255	-1.958856	26.060799	2.855747	-17.897431	-32.220232	18.549200	5.794004	32.973206	20.703955	8.408070	4.151873	35.582406	21.520563	-1.726999	-3.589300	52.692315	33.529545	-19.406679	-8.955105	59.691462	49.646897
-1.285000	-0.845308	-4.283240	94.249796	-0.006810	-0.268604	-0.000921	89.911501	-0.601002	-1.990032	26.158768	2.883266	-17.969592	-32.306362	18.586302	5.807384	32.975028	20.732479	8.494896	4.159755	35.534212	21.502563	-1.635887	-3.606962	52.622732	33.527219	-19.322183	-8.918331	59.722156	49.612089
-1.275000	-0.845308	-4.283240	94.249796	-0.006803	-0.268627	-0.000893	89.919848	-0.608619	-2.023366	26.240684	2.931748	-18.037366	-32.392816	18.632299	5.818774	32.964734	20.753352	8.579391	4.164690	35.485022	21.482965	-1.547462	-3.621392	52.549444	33.523792	-19.258802	-8.886636	59.763915	49.548970
-1.265000	-0.845308	-4.283240	94.249796	-0.006803	-0.268657	-0.000850	89.916938	-0.622988	-2.052304	26.296293	2.987805	-18.087930	-32.469396	18.672033	5.825287	32.953279	20.766642	8.640273	4.166807	35.449996	21.468061	-1.477806	-3.629304	52.487323	33.514625	-19.227118	-8.861377	59.807390	49.475678
-1.255000	-0.845308	-4.283240	94.249796	-0.006807	-0.268693	-0.000799	89.906548	-0.640989	-2.074236	26.327454	3.037988	-18.118732	-32.531431	18.695734	5.826303	32.949357	20.774192	8.667669	4.167166	35.437743	21.462320	-1.431506	-3.629056	52.441723	33.497338	-19.222314	-8.840402	59.840849	49.414018
-1.245000	-0.845308	-4.283240	94.249796	-0.006814	-0.268731	-0.000749	89.893678	-0.658337	-2.089847	26.341424	3.073683	-18.134544	-32.577006	18.701148	5.822965	32.955957	20.778495	8.663274	4.166713	35.448788	21.467855	-1.406501	-3.621629	52.413183	33.475124	-19.232477	-8.820607	59.856652	49.381369
-1.235000	-0.845308	-4.283240	94.249796	-0.006822	-0.268772	-0.000709	89.881106	-0.671047	-2.100401	26.342445	3.092465	-18.141403	-32.603505	18.691701	5.816707	32.970010	20.780971	8.634563	4.165644	35.478136	21.484670	-1.401845	-3.610055	52.403537	33.456092	-19.249482	-8.800737	59.854764	49.384778
-1.225000	-0.845308	-4.283240	94.249796	-0.006828	-0.268812	-0.000686	89.868882	-0.676685	-2.105750	26.328872	3.095852	-18.142345	-32.607602	18.673327	5.807979	32.984943	20.780201	8.588611	4.163560	35.519643	21.510551	-1.420854	-3.597592	52.417647	33.448848	-19.273270	-8.782847	59.840902	49.419885
-1.215000	-0.845308	-4.283240	94.249796	-0.006833	-0.268847	-0.000680	89.856940	-0.674807	-2.104908	26.297648	3.085944	-18.137572	-32.588926	18.652403	5.796160	32.994371	20.771421	8.530324	4.160078	35.568848	21.540427	-1.466719	-3.585822	52.459173	33.457196	-19.306754	-8.771875	59.820603	49.474289
-1.205000	-0.845308	-4.283240	94.249796	-0.006839	-0.268875	-0.000685	89.848112	-0.666627	-2.098358	26.251308	3.063618	-18.127516	-32.553429	18.635105	5.780719	32.994662	20.748272	8.465141	4.155325	35.622508	21.566344	-1.534705	-3.573959	52.524091	33.477328	-19.347351	-8.773597	59.793918	49.532747
